<svg width="19" height="22" viewBox="0 0 19 22" fill="none" xmlns="http://www.w3.org/2000/svg">
<path fill-rule="evenodd" clip-rule="evenodd" d="M8.73481 0.0636709C8.9612 -0.0212236 9.21068 -0.0212236 9.43706 0.0636709L17.4371 3.06367C17.8274 3.21003 18.0859 3.58316 18.0859 4V11C18.0859 14.4464 15.8042 17.2003 13.7444 19.0026C12.6936 19.9221 11.6474 20.6408 10.8659 21.1292C10.4742 21.3741 10.1463 21.5627 9.914 21.6913C9.79781 21.7556 9.70536 21.805 9.64062 21.839C9.60824 21.856 9.58276 21.8692 9.56469 21.8784L9.54319 21.8894L9.53672 21.8926L9.53457 21.8937C9.53424 21.8939 9.53315 21.8944 9.08594 21C8.63872 21.8944 8.63843 21.8943 8.63811 21.8941L8.63516 21.8926L8.62868 21.8894L8.60718 21.8784C8.58911 21.8692 8.56364 21.856 8.53126 21.839C8.46651 21.805 8.37406 21.7556 8.25787 21.6913C8.02562 21.5627 7.69771 21.3741 7.30594 21.1292C6.52448 20.6408 5.47832 19.9221 4.42743 19.0026C2.36768 17.2003 0.0859375 14.4464 0.0859375 11V4C0.0859375 3.58316 0.34451 3.21003 0.734814 3.06367L8.73481 0.0636709ZM9.08594 21L8.63811 21.8941C8.91963 22.0349 9.25162 22.0352 9.53315 21.8944L9.08594 21ZM9.08594 19.8628C9.27757 19.7541 9.52264 19.6103 9.80594 19.4333C10.5245 18.9842 11.4783 18.3279 12.4274 17.4974C14.3677 15.7997 16.0859 13.5536 16.0859 11V4.693L9.08594 2.068L2.08594 4.693V11C2.08594 13.5536 3.80419 15.7997 5.74444 17.4974C6.69356 18.3279 7.6474 18.9842 8.36594 19.4333C8.64923 19.6103 8.8943 19.7541 9.08594 19.8628Z" fill="currentColor"/>
<path fill-rule="evenodd" clip-rule="evenodd" d="M8.73481 0.0636709C8.9612 -0.0212236 9.21068 -0.0212236 9.43706 0.0636709L17.4371 3.06367C17.8274 3.21003 18.0859 3.58316 18.0859 4V11C18.0859 14.4464 15.8042 17.2003 13.7444 19.0026C12.6936 19.9221 11.6474 20.6408 10.8659 21.1292C10.4742 21.3741 10.1463 21.5627 9.914 21.6913C9.79781 21.7556 9.70536 21.805 9.64062 21.839C9.60824 21.856 9.58276 21.8692 9.56469 21.8784L9.54319 21.8894L9.53672 21.8926L9.53457 21.8937C9.53424 21.8939 9.53315 21.8944 9.08594 21C8.63872 21.8944 8.63843 21.8943 8.63811 21.8941L8.63516 21.8926L8.62868 21.8894L8.60718 21.8784C8.58911 21.8692 8.56364 21.856 8.53126 21.839C8.46651 21.805 8.37406 21.7556 8.25787 21.6913C8.02562 21.5627 7.69771 21.3741 7.30594 21.1292C6.52448 20.6408 5.47832 19.9221 4.42743 19.0026C2.36768 17.2003 0.0859375 14.4464 0.0859375 11V4C0.0859375 3.58316 0.34451 3.21003 0.734814 3.06367L8.73481 0.0636709ZM9.08594 21L8.63811 21.8941C8.91963 22.0349 9.25162 22.0352 9.53315 21.8944L9.08594 21ZM9.08594 19.8628C9.27757 19.7541 9.52264 19.6103 9.80594 19.4333C10.5245 18.9842 11.4783 18.3279 12.4274 17.4974C14.3677 15.7997 16.0859 13.5536 16.0859 11V4.693L9.08594 2.068L2.08594 4.693V11C2.08594 13.5536 3.80419 15.7997 5.74444 17.4974C6.69356 18.3279 7.6474 18.9842 8.36594 19.4333C8.64923 19.6103 8.8943 19.7541 9.08594 19.8628Z" fill="currentColor"/>
</svg>
