<svg width="10" height="10" viewBox="0 0 10 10" fill="none" xmlns="http://www.w3.org/2000/svg">
<path fill-rule="evenodd" clip-rule="evenodd" d="M2.40703 4.58078C2.62388 4.65779 2.73724 4.89601 2.66023 5.11286L1.36962 8.74696L5.00347 7.45983C5.22039 7.383 5.45851 7.49656 5.53535 7.71347C5.61218 7.93038 5.49862 8.16851 5.28171 8.24534L0.823373 9.82451C0.671905 9.87816 0.503084 9.83993 0.389506 9.72626C0.275929 9.61259 0.237839 9.44374 0.291616 9.29231L1.87495 4.83398C1.95196 4.61713 2.19018 4.50377 2.40703 4.58078Z" fill="black"/>
<path fill-rule="evenodd" clip-rule="evenodd" d="M1.10092 1.51509C1.10092 1.28497 1.28747 1.09842 1.51759 1.09842H1.52176C1.75188 1.09842 1.93842 1.28497 1.93842 1.51509C1.93842 1.74521 1.75188 1.93175 1.52176 1.93175H1.51759C1.28747 1.93175 1.10092 1.74521 1.10092 1.51509Z" fill="black"/>
<path fill-rule="evenodd" clip-rule="evenodd" d="M8.60092 3.59842C8.60092 3.3683 8.78747 3.18175 9.01759 3.18175H9.02176C9.25188 3.18175 9.43842 3.3683 9.43842 3.59842C9.43842 3.82854 9.25188 4.01509 9.02176 4.01509H9.01759C8.78747 4.01509 8.60092 3.82854 8.60092 3.59842Z" fill="black"/>
<path fill-rule="evenodd" clip-rule="evenodd" d="M5.68426 1.09842C5.68426 0.868302 5.8708 0.681754 6.10092 0.681754H6.10509C6.33521 0.681754 6.52176 0.868302 6.52176 1.09842C6.52176 1.32854 6.33521 1.51509 6.10509 1.51509H6.10092C5.8708 1.51509 5.68426 1.32854 5.68426 1.09842Z" fill="black"/>
<path fill-rule="evenodd" clip-rule="evenodd" d="M8.60092 8.59842C8.60092 8.3683 8.78747 8.18175 9.01759 8.18175H9.02176C9.25188 8.18175 9.43842 8.3683 9.43842 8.59842C9.43842 8.82854 9.25188 9.01509 9.02176 9.01509H9.01759C8.78747 9.01509 8.60092 8.82854 8.60092 8.59842Z" fill="black"/>
<path fill-rule="evenodd" clip-rule="evenodd" d="M9.4127 0.96613C9.48576 1.18434 9.36809 1.42047 9.14988 1.49353L8.21593 1.80623C8.04187 1.86421 7.89335 1.98085 7.79576 2.1362C7.69816 2.29155 7.65756 2.47598 7.68088 2.65796L7.6815 2.66279C7.75156 3.26533 7.28261 3.80675 6.66342 3.80675H6.50509C6.34184 3.80675 6.20938 3.91942 6.18106 4.06805L6.18049 4.07106L6.09298 4.51273C6.04826 4.73846 5.82901 4.8852 5.60328 4.84048C5.37755 4.79576 5.23081 4.57651 5.27553 4.35078L5.36277 3.91046C5.46845 3.35998 5.95223 2.97342 6.50509 2.97342H6.66342C6.77704 2.97342 6.86615 2.87411 6.85389 2.76064C6.80692 2.38816 6.89037 2.01087 7.09011 1.69291C7.29037 1.37414 7.59508 1.13478 7.95221 1.01573C7.95209 1.01577 7.95233 1.01569 7.95221 1.01573L8.8853 0.703312C9.10351 0.63025 9.33964 0.747918 9.4127 0.96613Z" fill="black"/>
<path fill-rule="evenodd" clip-rule="evenodd" d="M7.44055 5.9346C7.5527 5.29674 8.22441 4.9177 8.82911 5.15677L8.83148 5.15771L9.17315 5.29521C9.38663 5.38113 9.49004 5.62383 9.40413 5.83731C9.31822 6.05079 9.07551 6.15421 8.86203 6.06829L8.52188 5.9314C8.41082 5.88811 8.28403 5.95785 8.26171 6.07664C8.1817 6.56923 7.75339 6.93175 7.25509 6.93175H6.93426C6.70414 6.93175 6.51759 6.74521 6.51759 6.51509C6.51759 6.28497 6.70414 6.09842 6.93426 6.09842H7.25509C7.3467 6.09842 7.42547 6.03017 7.43931 5.94207L7.44055 5.9346Z" fill="black"/>
<path fill-rule="evenodd" clip-rule="evenodd" d="M4.2787 0.711881C4.49218 0.625968 4.73488 0.729382 4.8208 0.942862L4.95925 1.28689C5.19832 1.8916 4.81927 2.56331 4.18141 2.67546C4.17701 2.67623 4.1726 2.67693 4.16818 2.67757C4.0895 2.68881 4.01759 2.76455 4.01759 2.86092V3.18175C4.01759 3.41187 3.83104 3.59842 3.60092 3.59842C3.3708 3.59842 3.18426 3.41187 3.18426 3.18175V2.86092C3.18426 2.36865 3.54127 1.9301 4.04109 1.85397C4.15883 1.83075 4.22769 1.70465 4.18461 1.59413L4.04772 1.25398C3.9618 1.0405 4.06522 0.797794 4.2787 0.711881Z" fill="black"/>
<path fill-rule="evenodd" clip-rule="evenodd" d="M2.64686 5.14435C2.65626 5.14109 2.67599 5.13652 2.71181 5.1363C2.78938 5.13583 2.90839 5.15759 3.06578 5.22063C3.37907 5.34612 3.76761 5.60436 4.13963 5.97638C4.51165 6.3484 4.7699 6.73694 4.89538 7.05023C4.95843 7.20762 4.98018 7.32663 4.97971 7.4042C4.97949 7.44002 4.97493 7.45975 4.97166 7.46916C4.96226 7.47242 4.94252 7.47698 4.9067 7.4772C4.82913 7.47768 4.71012 7.45592 4.55273 7.39288C4.23944 7.26739 3.8509 7.00915 3.47888 6.63713C3.10687 6.26511 2.84862 5.87657 2.72313 5.56328C2.66009 5.40589 2.63833 5.28688 2.63881 5.20931C2.63903 5.17349 2.64359 5.15376 2.64686 5.14435ZM3.37565 4.44705C3.81653 4.62364 4.29674 4.95498 4.72888 5.38713C5.16103 5.81927 5.49237 6.29948 5.66896 6.74037C5.75696 6.96006 5.81437 7.18948 5.81302 7.40931C5.81166 7.6317 5.74835 7.87358 5.56222 8.05972C5.37609 8.24585 5.1342 8.30916 4.91181 8.31052C4.69198 8.31187 4.46256 8.25446 4.24287 8.16646C3.80199 7.98987 3.32178 7.65853 2.88963 7.22638C2.45748 6.79423 2.12615 6.31403 1.94955 5.87314C1.86155 5.65345 1.80414 5.42403 1.80549 5.2042C1.80685 4.98181 1.87016 4.73993 2.0563 4.55379C2.24243 4.36766 2.48431 4.30435 2.7067 4.30299C2.92653 4.30164 3.15595 4.35905 3.37565 4.44705Z" fill="black"/>
</svg>
